<svg aria-hidden="true" style="position:absolute;width:0;height:0" xmlns="http://www.w3.org/2000/svg" overflow="hidden">
  <defs>
    <symbol id="icon-cancel" viewBox="0 0 32 32">
      <path fill="var(--color1, #8b91dd)" d="m10.858 8.115 5.143 5.143 5.143-5.143a1.455 1.455 0 0 1 2.057 0l.686.686a1.455 1.455 0 0 1 0 2.057l-5.143 5.143 5.143 5.143a1.455 1.455 0 0 1 0 2.057l-.686.686a1.455 1.455 0 0 1-2.057 0l-5.143-5.143-5.143 5.143a1.455 1.455 0 0 1-2.057 0l-.686-.686a1.455 1.455 0 0 1 0-2.057l5.143-5.143-5.143-5.143a1.455 1.455 0 0 1 0-2.057l.686-.686a1.455 1.455 0 0 1 2.057 0z"/>
    </symbol>
    <symbol id="icon-female" viewBox="0 0 19 32">
      <path fill="var(--color2, #f6576e)" d="M7.234 18.695v3.458H2.148v3.896h5.086v5.192h3.818V26.05h5.087v-3.896h-5.087v-3.458c2.14-.48 4.031-1.75 5.31-3.566s1.855-4.05 1.618-6.273c-.237-2.223-1.27-4.279-2.901-5.772S11.334.766 9.143.766s-4.305.826-5.936 2.319S.543 6.634.306 8.857c-.237 2.223.34 4.457 1.618 6.273s3.17 3.086 5.31 3.566v-.001zM9.143 4.666c1.003 0 1.983.303 2.817.872s1.484 1.377 1.868 2.322c.384.946.484 1.986.289 2.99s-.679 1.926-1.388 2.65c-.709.724-1.613 1.217-2.596 1.416s-2.003.097-2.93-.294c-.927-.392-1.719-1.055-2.276-1.906a5.251 5.251 0 0 1 .632-6.532 5.028 5.028 0 0 1 3.584-1.518z"/>
    </symbol>
    <symbol id="icon-male" viewBox="0 0 25 32">
      <path fill="var(--color1, #8b91dd)" d="m17.429 13.484 4.009-6.943 3.049 1.76L22.574.156l-8.011 2.415 3.049 1.76-4.008 6.943c-2.415-.77-5.024-.627-7.327.402a10.144 10.144 0 0 0-5.49 12.477c.794 2.398 2.448 4.426 4.644 5.694s4.779 1.686 7.253 1.175a10.143 10.143 0 0 0 8.061-10.993 10.289 10.289 0 0 0-3.315-6.546zM7.624 26.048c-1.005-.58-1.817-1.443-2.333-2.48s-.713-2.2-.565-3.343c.147-1.143.632-2.215 1.393-3.08S7.882 15.661 9 15.367a5.903 5.903 0 0 1 6.168 2.104c.708.918 1.129 2.022 1.209 3.174a5.782 5.782 0 0 1-4.308 5.998 5.9 5.9 0 0 1-4.445-.595z"/>
    </symbol>
    <symbol id="icon-refresh" viewBox="0 0 32 32">
      <path fill="var(--color3, #2c7dfa)" d="M0 11a1 1 0 0 0 1 1h8.667a1 1 0 0 0 .707-1.706L6.626 6.546a13.261 13.261 0 0 1 9.375-3.879c7.352 0 13.333 5.981 13.333 13.333A1.333 1.333 0 1 0 32 16c0-8.823-7.177-16-16-16A15.93 15.93 0 0 0 4.727 4.647l-3.02-3.02a.997.997 0 0 0-1.706.707v8.667zM32 20.999a1 1 0 0 0-1-1h-8.667a1 1 0 0 0-.707 1.706l3.748 3.748a13.261 13.261 0 0 1-9.375 3.879c-7.352 0-13.333-5.981-13.333-13.333a1.333 1.333 0 1 0-2.666 0c0 8.823 7.177 16 16 16a15.93 15.93 0 0 0 11.273-4.647l3.02 3.02a.998.998 0 0 0 1.09.217 1 1 0 0 0 .617-.924v-8.667z"/>
    </symbol>
    <symbol id="icon-search" viewBox="0 0 32 32">
      <path fill="var(--color3, #2c7dfa)" d="m31.636 29.876-7.809-7.809a13.406 13.406 0 0 0 3.111-8.598C26.938 6.042 20.896 0 13.47 0S.002 6.042.002 13.469c0 7.426 6.042 13.468 13.468 13.468a13.4 13.4 0 0 0 8.598-3.111l7.81 7.809c.243.243.561.364.88.364s.637-.121.88-.364a1.243 1.243 0 0 0 0-1.759zM2.488 13.469c0-6.055 4.926-10.98 10.98-10.98s10.98 4.926 10.98 10.98-4.925 10.979-10.98 10.979-10.98-4.925-10.98-10.979z"/>
    </symbol>
    <symbol id="icon-telegram" viewBox="0 0 32 32">
      <path fill="var(--color4, #41b4e6)" d="M16 32c8.836 0 16-7.163 16-16S24.837 0 16 0C7.164 0 0 7.163 0 16s7.163 16 16 16z"/>
      <path fill="var(--color5, #0091c8)" d="M32 16c0-.39-.015-.776-.042-1.159L25.327 8.21 6.673 15.547l7.137 7.137.094.337.121-.122h.001l-.122.122 7.895 7.895C27.769 28.594 32 22.791 32 16z"/>
      <path fill="var(--color6, #fff)" d="m14.446 18.331 7.231 5.459 3.65-15.58-18.654 7.337 5.676 1.88 10.359-6.949-8.262 7.852z"/>
      <path fill="var(--color7, #d2d2d7)" d="m12.349 17.429 1.555 5.594.542-4.69 8.262-7.852-10.359 6.949z"/>
      <path fill="var(--color8, #b9b9be)" d="m16.796 20.104-2.892 2.916.542-4.69 2.35 1.774z"/>
    </symbol>
    <symbol id="icon-viber" viewBox="0 0 32 32">
      <path fill="var(--color9, #6f3faa)" d="M16 32c8.837 0 16-7.163 16-16S24.837 0 16 0 0 7.163 0 16s7.163 16 16 16z"/>
      <path fill="var(--color10, #512d84)" d="M22.941 8.779c-3.895-.941-7.796-2.041-11.79-.643-2.586.97-2.586 3.771-2.478 6.141 0 .646-.754 1.508-.431 2.263.646 2.155 1.185 4.31 3.448 5.387.323.215 0 .646.216.97-.108 0-.323.108-.323.216 0 .516.232 1.306.078 1.816l6.875 6.873c7.068-1.126 12.592-6.879 13.37-14.058L22.942 8.78z"/>
      <path fill="var(--color6, #fff)" d="m24.464 11.244-.005-.021c-.427-1.728-2.355-3.583-4.125-3.969l-.02-.004a22.928 22.928 0 0 0-8.628 0l-.021.004c-1.769.386-3.697 2.24-4.125 3.969l-.005.021a16.873 16.873 0 0 0 0 7.275l.005.021c.41 1.655 2.194 3.424 3.898 3.91v1.929a.776.776 0 0 0 1.335.537l1.955-2.032a23.002 23.002 0 0 0 5.586-.372l.02-.004c1.77-.386 3.697-2.24 4.125-3.969l.005-.021a16.904 16.904 0 0 0 0-7.275zm-1.546 6.925c-.285 1.128-1.749 2.529-2.912 2.788a21.42 21.42 0 0 1-4.589.371.106.106 0 0 0-.081.033l-1.427 1.465-1.518 1.558a.178.178 0 0 1-.306-.123v-3.196a.11.11 0 0 0-.09-.108h-.001c-1.163-.259-2.626-1.661-2.912-2.788a15.315 15.315 0 0 1 0-6.575c.286-1.128 1.749-2.529 2.912-2.788a21.333 21.333 0 0 1 8.012 0c1.163.259 2.626 1.661 2.912 2.788a15.315 15.315 0 0 1 0 6.575z"/>
      <path fill="var(--color6, #fff)" d="M18.53 19.645c-.179-.054-.349-.091-.507-.156-1.64-.68-3.148-1.558-4.343-2.903-.68-.765-1.212-1.628-1.661-2.542-.213-.433-.393-.884-.576-1.331-.167-.408.079-.829.338-1.137.243-.289.556-.509.895-.672.264-.127.525-.054.718.17a9.3 9.3 0 0 1 1.111 1.555c.191.345.139.768-.207 1.003-.084.057-.161.124-.239.189a.816.816 0 0 0-.181.19.523.523 0 0 0-.035.458c.427 1.173 1.146 2.084 2.326 2.576.189.079.378.17.596.145.364-.042.482-.442.738-.651.25-.204.569-.207.837-.037s.53.353.789.538c.254.181.508.358.742.565.226.199.303.459.176.729-.233.494-.571.905-1.059 1.167-.138.074-.302.098-.458.146-.179-.054.155-.048 0 0zM16.005 10.339c2.144.06 3.906 1.483 4.283 3.603.064.361.087.73.116 1.097.012.154-.075.301-.242.303-.172.002-.249-.142-.26-.296-.022-.305-.037-.612-.079-.914-.222-1.597-1.496-2.919-3.086-3.203-.239-.043-.484-.054-.727-.079-.153-.016-.354-.025-.388-.216-.028-.16.106-.287.258-.295.041-.002.083-.001.124 0 2.144.06-.042 0 0 0z"/>
      <path fill="var(--color6, #fff)" d="M19.264 14.562c-.003.027-.005.09-.021.149-.057.215-.383.242-.458.025a.65.65 0 0 1-.026-.207 2.6 2.6 0 0 0-.328-1.303 2.418 2.418 0 0 0-1.017-.954 2.91 2.91 0 0 0-.811-.249c-.122-.02-.246-.032-.368-.05-.149-.021-.228-.116-.221-.262a.232.232 0 0 1 .257-.228c.492.028.967.134 1.405.366.89.471 1.398 1.215 1.546 2.208.007.045.017.09.021.135.008.111.014.223.022.37-.003.027-.008-.147 0 0z"/>
      <path fill="var(--color6, #fff)" d="M17.93 14.512c-.179.003-.275-.096-.294-.261-.013-.115-.023-.231-.05-.342a.968.968 0 0 0-.355-.558.917.917 0 0 0-.29-.14c-.132-.038-.268-.028-.4-.06-.143-.035-.221-.15-.199-.284a.257.257 0 0 1 .272-.207c.831.06 1.426.49 1.51 1.469.006.069.013.142-.002.208-.026.113-.11.17-.192.175-.18.003.082-.005 0 0z"/>
      <path fill="var(--color11, #d1d1d1)" d="m24.464 11.243-.005-.021c-.24-.969-.951-1.977-1.841-2.744l-1.204 1.067c.716.57 1.329 1.36 1.503 2.049a15.315 15.315 0 0 1 0 6.575c-.285 1.128-1.749 2.529-2.912 2.788a21.42 21.42 0 0 1-4.589.371.106.106 0 0 0-.081.033l-1.427 1.465-1.518 1.558a.178.178 0 0 1-.306-.123v-3.196a.11.11 0 0 0-.09-.108h-.001c-.661-.147-1.418-.664-2.002-1.289l-1.189 1.054c.743.808 1.701 1.461 2.636 1.728v1.929a.776.776 0 0 0 1.335.537l1.955-2.032a23.002 23.002 0 0 0 5.586-.372l.02-.004c1.77-.386 3.697-2.24 4.125-3.969l.005-.021a16.873 16.873 0 0 0 0-7.275z"/>
      <path fill="var(--color6, #fff)" d="M18.529 19.646c.155-.048-.179-.054 0 0z"/>
      <path fill="var(--color11, #d1d1d1)" d="M19.87 17.606c-.235-.207-.488-.384-.742-.565-.259-.185-.52-.367-.789-.538s-.588-.167-.837.037c-.255.209-.373.608-.738.651-.217.025-.407-.066-.596-.145a3.863 3.863 0 0 1-1.694-1.347l-.885.784.089.105c1.195 1.345 2.704 2.223 4.343 2.903.158.066.329.102.507.156-.179-.054.155-.048 0 0 .155-.048.32-.072.458-.146.488-.262.827-.673 1.059-1.167.127-.269.049-.53-.176-.729z"/>
      <path fill="var(--color6, #fff)" d="M16.005 10.338h.005c.119.004 2.055.058-.005 0z"/>
      <path fill="var(--color11, #d1d1d1)" d="m19.08 11.614-.377.334a3.786 3.786 0 0 1 1.119 2.183c.042.303.057.609.08.914.011.154.088.298.26.296.166-.002.254-.149.242-.303-.029-.367-.052-.736-.116-1.097a4.312 4.312 0 0 0-1.207-2.328zM19.22 14.057c-.108-.724-.408-1.314-.907-1.764l-.376.333c.195.173.363.376.492.599a2.6 2.6 0 0 1 .329 1.303c0 .069.003.143.026.207.075.217.402.19.458-.025.016-.059.017-.122.021-.149-.004.027-.009-.147 0 0-.009-.147-.014-.259-.022-.37-.003-.045-.014-.09-.021-.135z"/>
      <path fill="var(--color6, #fff)" d="M19.263 14.566c-.009-.147-.004.027 0 0zM17.93 14.513l.008-.002-.031.001.023.001zM17.929 14.513l-.023-.001c-.039.001-.079.003.023.001z"/>
      <path fill="var(--color6, #fff)" d="m17.938 14.511-.008.002c.021-.001.019-.002.008-.002z"/>
      <path fill="var(--color11, #d1d1d1)" d="m17.551 12.969-.383.339a.958.958 0 0 1 .417.599c.027.112.038.228.05.342.018.157.107.254.271.259l.031-.001a.214.214 0 0 0 .184-.173c.015-.066.008-.139.002-.208-.048-.547-.254-.923-.573-1.158z"/>
    </symbol>
  </defs>
</svg>
